<?xml version="1.0" encoding="UTF-8"?>
<!DOCTYPE svg PUBLIC "-//W3C//DTD SVG 1.1//EN" "http://www.w3.org/Graphics/SVG/1.1/DTD/svg11.dtd">
<svg xmlns="http://www.w3.org/2000/svg" style="background: #ffffff; background-color: var(--ge-adaptive-bg, #ffffff); color-scheme: light dark;" xmlns:xlink="http://www.w3.org/1999/xlink" version="1.1" width="1201px" height="73px" viewBox="0 0 1201 73" id="ge-svg-wIoROYjQXLt7T7oUzrjo"><style type="text/css">@supports (color: light-dark(#000, #fff)) { #ge-svg-wIoROYjQXLt7T7oUzrjo { --ge-adaptive-bg: light-dark(#ffffff, var(--ge-dark-color, #121212)); } }</style><defs/><rect fill="#ffffff" width="100%" height="100%" x="0" y="0" style="fill: var(--ge-adaptive-bg, #ffffff);"/><g><g data-cell-id="rzHJBAYA5Kq8FJsv38pJ-0"><g data-cell-id="rzHJBAYA5Kq8FJsv38pJ-1"><g data-cell-id="rzHJBAYA5Kq8FJsv38pJ-2"><g transform="translate(0.5,0.5)"/><g data-cell-id="rzHJBAYA5Kq8FJsv38pJ-3"><g transform="translate(0.5,0.5)"><path d="M 136.44 36.28 L 139.43 60.36 C 140 63.89 138.44 67.44 135.45 69.38 C 125.21 71 114.79 71 104.55 69.38 C 101.56 67.44 100 63.89 100.57 60.36 L 103.56 36.28 C 104.13 33.61 106.98 31.56 110.53 31.26 L 129.47 31.26 C 133.02 31.56 135.87 33.61 136.44 36.28 Z" fill="#ffffff" stroke="#000000" stroke-miterlimit="10" transform="rotate(-180,120,49.5)" pointer-events="all" style="fill: var(--ge-adaptive-bg, #ffffff); stroke: light-dark(rgb(0, 0, 0), rgb(255, 255, 255));"/><path d="M 135.67 30.77 C 136.49 31.08 136.94 32.08 136.67 33.01 C 136.39 33.94 135.5 34.44 134.67 34.13 C 124.82 31.7 114.62 31.7 104.77 34.13 C 104.15 33.95 103.66 33.43 103.46 32.75 C 103.25 32.07 103.38 31.33 103.78 30.77 C 114.26 28 125.18 28 135.67 30.77" fill="#ffffff" stroke="#000000" stroke-miterlimit="10" transform="rotate(-180,120,49.5)" pointer-events="all" style="fill: var(--ge-adaptive-bg, #ffffff); stroke: light-dark(rgb(0, 0, 0), rgb(255, 255, 255));"/></g></g><g data-cell-id="rzHJBAYA5Kq8FJsv38pJ-4"><g transform="translate(0.5,0.5)"><rect x="80" y="0" width="80" height="50" fill="#ffffff" stroke="#000000" transform="rotate(-180,120,25)" pointer-events="all" style="fill: var(--ge-adaptive-bg, #ffffff); stroke: light-dark(rgb(0, 0, 0), rgb(255, 255, 255));"/></g></g><g data-cell-id="rzHJBAYA5Kq8FJsv38pJ-5"><g transform="translate(0.5,0.5)"><rect x="90" y="41" width="60" height="30" fill="none" stroke="none" pointer-events="all"/></g><g><g><switch><foreignObject style="overflow: visible; text-align: left;" pointer-events="none" width="100%" height="100%" requiredFeatures="http://www.w3.org/TR/SVG11/feature#Extensibility"><div xmlns="http://www.w3.org/1999/xhtml" style="display: flex; align-items: unsafe center; justify-content: unsafe center; width: 58px; height: 1px; padding-top: 56px; margin-left: 91px;"><div style="box-sizing: border-box; font-size: 0; text-align: center; color: #000000; "><div style="display: inline-block; font-size: 12px; font-family: Helvetica; color: light-dark(#000000, #ffffff); line-height: 1.2; pointer-events: all; white-space: normal; word-wrap: normal; ">S002</div></div></div></foreignObject><text x="120" y="60" fill="light-dark(#000000, #ffffff)" font-family="Helvetica" font-size="12px" text-anchor="middle">S002</text></switch></g></g></g></g><g data-cell-id="rzHJBAYA5Kq8FJsv38pJ-6"><g transform="translate(0.5,0.5)"/><g data-cell-id="rzHJBAYA5Kq8FJsv38pJ-7"><g transform="translate(0.5,0.5)"><path d="M 216.44 36.28 L 219.43 60.36 C 220 63.89 218.44 67.44 215.45 69.38 C 205.21 71 194.79 71 184.55 69.38 C 181.56 67.44 180 63.89 180.57 60.36 L 183.56 36.28 C 184.13 33.61 186.98 31.56 190.53 31.26 L 209.47 31.26 C 213.02 31.56 215.87 33.61 216.44 36.28 Z" fill="#ffffff" stroke="#000000" stroke-miterlimit="10" transform="rotate(-180,200,49.5)" pointer-events="all" style="fill: var(--ge-adaptive-bg, #ffffff); stroke: light-dark(rgb(0, 0, 0), rgb(255, 255, 255));"/><path d="M 215.67 30.77 C 216.49 31.08 216.94 32.08 216.67 33.01 C 216.39 33.94 215.5 34.44 214.67 34.13 C 204.82 31.7 194.62 31.7 184.77 34.13 C 184.15 33.95 183.66 33.43 183.46 32.75 C 183.25 32.07 183.38 31.33 183.78 30.77 C 194.26 28 205.18 28 215.67 30.77" fill="#ffffff" stroke="#000000" stroke-miterlimit="10" transform="rotate(-180,200,49.5)" pointer-events="all" style="fill: var(--ge-adaptive-bg, #ffffff); stroke: light-dark(rgb(0, 0, 0), rgb(255, 255, 255));"/></g></g><g data-cell-id="rzHJBAYA5Kq8FJsv38pJ-8"><g transform="translate(0.5,0.5)"><rect x="160" y="0" width="80" height="50" fill="#ffffff" stroke="#000000" transform="rotate(-180,200,25)" pointer-events="all" style="fill: var(--ge-adaptive-bg, #ffffff); stroke: light-dark(rgb(0, 0, 0), rgb(255, 255, 255));"/></g></g><g data-cell-id="rzHJBAYA5Kq8FJsv38pJ-9"><g transform="translate(0.5,0.5)"><rect x="170" y="41" width="60" height="30" fill="none" stroke="none" pointer-events="all"/></g><g><g><switch><foreignObject style="overflow: visible; text-align: left;" pointer-events="none" width="100%" height="100%" requiredFeatures="http://www.w3.org/TR/SVG11/feature#Extensibility"><div xmlns="http://www.w3.org/1999/xhtml" style="display: flex; align-items: unsafe center; justify-content: unsafe center; width: 58px; height: 1px; padding-top: 56px; margin-left: 171px;"><div style="box-sizing: border-box; font-size: 0; text-align: center; color: #000000; "><div style="display: inline-block; font-size: 12px; font-family: Helvetica; color: light-dark(#000000, #ffffff); line-height: 1.2; pointer-events: all; white-space: normal; word-wrap: normal; ">S003</div></div></div></foreignObject><text x="200" y="60" fill="light-dark(#000000, #ffffff)" font-family="Helvetica" font-size="12px" text-anchor="middle">S003</text></switch></g></g></g></g><g data-cell-id="rzHJBAYA5Kq8FJsv38pJ-10"><g transform="translate(0.5,0.5)"/><g data-cell-id="rzHJBAYA5Kq8FJsv38pJ-11"><g transform="translate(0.5,0.5)"><path d="M 296.44 36.28 L 299.43 60.36 C 300 63.89 298.44 67.44 295.45 69.38 C 285.21 71 274.79 71 264.55 69.38 C 261.56 67.44 260 63.89 260.57 60.36 L 263.56 36.28 C 264.13 33.61 266.98 31.56 270.53 31.26 L 289.47 31.26 C 293.02 31.56 295.87 33.61 296.44 36.28 Z" fill="#ffffff" stroke="#000000" stroke-miterlimit="10" transform="rotate(-180,280,49.5)" pointer-events="all" style="fill: var(--ge-adaptive-bg, #ffffff); stroke: light-dark(rgb(0, 0, 0), rgb(255, 255, 255));"/><path d="M 295.67 30.77 C 296.49 31.08 296.94 32.08 296.67 33.01 C 296.39 33.94 295.5 34.44 294.67 34.13 C 284.82 31.7 274.62 31.7 264.77 34.13 C 264.15 33.95 263.66 33.43 263.46 32.75 C 263.25 32.07 263.38 31.33 263.78 30.77 C 274.26 28 285.18 28 295.67 30.77" fill="#ffffff" stroke="#000000" stroke-miterlimit="10" transform="rotate(-180,280,49.5)" pointer-events="all" style="fill: var(--ge-adaptive-bg, #ffffff); stroke: light-dark(rgb(0, 0, 0), rgb(255, 255, 255));"/></g></g><g data-cell-id="rzHJBAYA5Kq8FJsv38pJ-12"><g transform="translate(0.5,0.5)"><rect x="240" y="0" width="80" height="50" fill="#ffffff" stroke="#000000" transform="rotate(-180,280,25)" pointer-events="all" style="fill: var(--ge-adaptive-bg, #ffffff); stroke: light-dark(rgb(0, 0, 0), rgb(255, 255, 255));"/></g></g><g data-cell-id="rzHJBAYA5Kq8FJsv38pJ-13"><g transform="translate(0.5,0.5)"><rect x="250" y="41" width="60" height="30" fill="none" stroke="none" pointer-events="all"/></g><g><g><switch><foreignObject style="overflow: visible; text-align: left;" pointer-events="none" width="100%" height="100%" requiredFeatures="http://www.w3.org/TR/SVG11/feature#Extensibility"><div xmlns="http://www.w3.org/1999/xhtml" style="display: flex; align-items: unsafe center; justify-content: unsafe center; width: 58px; height: 1px; padding-top: 56px; margin-left: 251px;"><div style="box-sizing: border-box; font-size: 0; text-align: center; color: #000000; "><div style="display: inline-block; font-size: 12px; font-family: Helvetica; color: light-dark(#000000, #ffffff); line-height: 1.2; pointer-events: all; white-space: normal; word-wrap: normal; ">S004</div></div></div></foreignObject><text x="280" y="60" fill="light-dark(#000000, #ffffff)" font-family="Helvetica" font-size="12px" text-anchor="middle">S004</text></switch></g></g></g></g><g data-cell-id="rzHJBAYA5Kq8FJsv38pJ-14"><g transform="translate(0.5,0.5)"/><g data-cell-id="rzHJBAYA5Kq8FJsv38pJ-15"><g transform="translate(0.5,0.5)"><path d="M 376.44 36.28 L 379.43 60.36 C 380 63.89 378.44 67.44 375.45 69.38 C 365.21 71 354.79 71 344.55 69.38 C 341.56 67.44 340 63.89 340.57 60.36 L 343.56 36.28 C 344.13 33.61 346.98 31.56 350.53 31.26 L 369.47 31.26 C 373.02 31.56 375.87 33.61 376.44 36.28 Z" fill="#ffffff" stroke="#000000" stroke-miterlimit="10" transform="rotate(-180,360,49.5)" pointer-events="all" style="fill: var(--ge-adaptive-bg, #ffffff); stroke: light-dark(rgb(0, 0, 0), rgb(255, 255, 255));"/><path d="M 375.67 30.77 C 376.49 31.08 376.94 32.08 376.67 33.01 C 376.39 33.94 375.5 34.44 374.67 34.13 C 364.82 31.7 354.62 31.7 344.77 34.13 C 344.15 33.95 343.66 33.43 343.46 32.75 C 343.25 32.07 343.38 31.33 343.78 30.77 C 354.26 28 365.18 28 375.67 30.77" fill="#ffffff" stroke="#000000" stroke-miterlimit="10" transform="rotate(-180,360,49.5)" pointer-events="all" style="fill: var(--ge-adaptive-bg, #ffffff); stroke: light-dark(rgb(0, 0, 0), rgb(255, 255, 255));"/></g></g><g data-cell-id="rzHJBAYA5Kq8FJsv38pJ-16"><g transform="translate(0.5,0.5)"><rect x="320" y="0" width="80" height="50" fill="#ffffff" stroke="#000000" transform="rotate(-180,360,25)" pointer-events="all" style="fill: var(--ge-adaptive-bg, #ffffff); stroke: light-dark(rgb(0, 0, 0), rgb(255, 255, 255));"/></g></g><g data-cell-id="rzHJBAYA5Kq8FJsv38pJ-17"><g transform="translate(0.5,0.5)"><rect x="330" y="41" width="60" height="30" fill="none" stroke="none" pointer-events="all"/></g><g><g><switch><foreignObject style="overflow: visible; text-align: left;" pointer-events="none" width="100%" height="100%" requiredFeatures="http://www.w3.org/TR/SVG11/feature#Extensibility"><div xmlns="http://www.w3.org/1999/xhtml" style="display: flex; align-items: unsafe center; justify-content: unsafe center; width: 58px; height: 1px; padding-top: 56px; margin-left: 331px;"><div style="box-sizing: border-box; font-size: 0; text-align: center; color: #000000; "><div style="display: inline-block; font-size: 12px; font-family: Helvetica; color: light-dark(#000000, #ffffff); line-height: 1.2; pointer-events: all; white-space: normal; word-wrap: normal; ">S005</div></div></div></foreignObject><text x="360" y="60" fill="light-dark(#000000, #ffffff)" font-family="Helvetica" font-size="12px" text-anchor="middle">S005</text></switch></g></g></g></g><g data-cell-id="rzHJBAYA5Kq8FJsv38pJ-18"><g transform="translate(0.5,0.5)"/><g data-cell-id="rzHJBAYA5Kq8FJsv38pJ-19"><g transform="translate(0.5,0.5)"><path d="M 456.44 36.28 L 459.43 60.36 C 460 63.89 458.44 67.44 455.45 69.38 C 445.21 71 434.79 71 424.55 69.38 C 421.56 67.44 420 63.89 420.57 60.36 L 423.56 36.28 C 424.13 33.61 426.98 31.56 430.53 31.26 L 449.47 31.26 C 453.02 31.56 455.87 33.61 456.44 36.28 Z" fill="#ffffff" stroke="#000000" stroke-miterlimit="10" transform="rotate(-180,440,49.5)" pointer-events="all" style="fill: var(--ge-adaptive-bg, #ffffff); stroke: light-dark(rgb(0, 0, 0), rgb(255, 255, 255));"/><path d="M 455.67 30.77 C 456.49 31.08 456.94 32.08 456.67 33.01 C 456.39 33.94 455.5 34.44 454.67 34.13 C 444.82 31.7 434.62 31.7 424.77 34.13 C 424.15 33.95 423.66 33.43 423.46 32.75 C 423.25 32.07 423.38 31.33 423.78 30.77 C 434.26 28 445.18 28 455.67 30.77" fill="#ffffff" stroke="#000000" stroke-miterlimit="10" transform="rotate(-180,440,49.5)" pointer-events="all" style="fill: var(--ge-adaptive-bg, #ffffff); stroke: light-dark(rgb(0, 0, 0), rgb(255, 255, 255));"/></g></g><g data-cell-id="rzHJBAYA5Kq8FJsv38pJ-20"><g transform="translate(0.5,0.5)"><rect x="400" y="0" width="80" height="50" fill="#ffffff" stroke="#000000" transform="rotate(-180,440,25)" pointer-events="all" style="fill: var(--ge-adaptive-bg, #ffffff); stroke: light-dark(rgb(0, 0, 0), rgb(255, 255, 255));"/></g></g><g data-cell-id="rzHJBAYA5Kq8FJsv38pJ-21"><g transform="translate(0.5,0.5)"><rect x="410" y="41" width="60" height="30" fill="none" stroke="none" pointer-events="all"/></g><g><g><switch><foreignObject style="overflow: visible; text-align: left;" pointer-events="none" width="100%" height="100%" requiredFeatures="http://www.w3.org/TR/SVG11/feature#Extensibility"><div xmlns="http://www.w3.org/1999/xhtml" style="display: flex; align-items: unsafe center; justify-content: unsafe center; width: 58px; height: 1px; padding-top: 56px; margin-left: 411px;"><div style="box-sizing: border-box; font-size: 0; text-align: center; color: #000000; "><div style="display: inline-block; font-size: 12px; font-family: Helvetica; color: light-dark(#000000, #ffffff); line-height: 1.2; pointer-events: all; white-space: normal; word-wrap: normal; ">S006</div></div></div></foreignObject><text x="440" y="60" fill="light-dark(#000000, #ffffff)" font-family="Helvetica" font-size="12px" text-anchor="middle">S006</text></switch></g></g></g></g><g data-cell-id="rzHJBAYA5Kq8FJsv38pJ-22"><g transform="translate(0.5,0.5)"/><g data-cell-id="rzHJBAYA5Kq8FJsv38pJ-23"><g transform="translate(0.5,0.5)"><path d="M 536.44 36.28 L 539.43 60.36 C 540 63.89 538.44 67.44 535.45 69.38 C 525.21 71 514.79 71 504.55 69.38 C 501.56 67.44 500 63.89 500.57 60.36 L 503.56 36.28 C 504.13 33.61 506.98 31.56 510.53 31.26 L 529.47 31.26 C 533.02 31.56 535.87 33.61 536.44 36.28 Z" fill="#ffffff" stroke="#000000" stroke-miterlimit="10" transform="rotate(-180,520,49.5)" pointer-events="all" style="fill: var(--ge-adaptive-bg, #ffffff); stroke: light-dark(rgb(0, 0, 0), rgb(255, 255, 255));"/><path d="M 535.67 30.77 C 536.49 31.08 536.94 32.08 536.67 33.01 C 536.39 33.94 535.5 34.44 534.67 34.13 C 524.82 31.7 514.62 31.7 504.77 34.13 C 504.15 33.95 503.66 33.43 503.46 32.75 C 503.25 32.07 503.38 31.33 503.78 30.77 C 514.26 28 525.18 28 535.67 30.77" fill="#ffffff" stroke="#000000" stroke-miterlimit="10" transform="rotate(-180,520,49.5)" pointer-events="all" style="fill: var(--ge-adaptive-bg, #ffffff); stroke: light-dark(rgb(0, 0, 0), rgb(255, 255, 255));"/></g></g><g data-cell-id="rzHJBAYA5Kq8FJsv38pJ-24"><g transform="translate(0.5,0.5)"><rect x="480" y="0" width="80" height="50" fill="#ffffff" stroke="#000000" transform="rotate(-180,520,25)" pointer-events="all" style="fill: var(--ge-adaptive-bg, #ffffff); stroke: light-dark(rgb(0, 0, 0), rgb(255, 255, 255));"/></g></g><g data-cell-id="rzHJBAYA5Kq8FJsv38pJ-25"><g transform="translate(0.5,0.5)"><rect x="490" y="41" width="60" height="30" fill="none" stroke="none" pointer-events="all"/></g><g><g><switch><foreignObject style="overflow: visible; text-align: left;" pointer-events="none" width="100%" height="100%" requiredFeatures="http://www.w3.org/TR/SVG11/feature#Extensibility"><div xmlns="http://www.w3.org/1999/xhtml" style="display: flex; align-items: unsafe center; justify-content: unsafe center; width: 58px; height: 1px; padding-top: 56px; margin-left: 491px;"><div style="box-sizing: border-box; font-size: 0; text-align: center; color: #000000; "><div style="display: inline-block; font-size: 12px; font-family: Helvetica; color: light-dark(#000000, #ffffff); line-height: 1.2; pointer-events: all; white-space: normal; word-wrap: normal; ">S007</div></div></div></foreignObject><text x="520" y="60" fill="light-dark(#000000, #ffffff)" font-family="Helvetica" font-size="12px" text-anchor="middle">S007</text></switch></g></g></g></g><g data-cell-id="rzHJBAYA5Kq8FJsv38pJ-26"><g transform="translate(0.5,0.5)"/><g data-cell-id="rzHJBAYA5Kq8FJsv38pJ-27"><g transform="translate(0.5,0.5)"><path d="M 616.44 36.28 L 619.43 60.36 C 620 63.89 618.44 67.44 615.45 69.38 C 605.21 71 594.79 71 584.55 69.38 C 581.56 67.44 580 63.89 580.57 60.36 L 583.56 36.28 C 584.13 33.61 586.98 31.56 590.53 31.26 L 609.47 31.26 C 613.02 31.56 615.87 33.61 616.44 36.28 Z" fill="#ffffff" stroke="#000000" stroke-miterlimit="10" transform="rotate(-180,600,49.5)" pointer-events="all" style="fill: var(--ge-adaptive-bg, #ffffff); stroke: light-dark(rgb(0, 0, 0), rgb(255, 255, 255));"/><path d="M 615.67 30.77 C 616.49 31.08 616.94 32.08 616.67 33.01 C 616.39 33.94 615.5 34.44 614.67 34.13 C 604.82 31.7 594.62 31.7 584.77 34.13 C 584.15 33.95 583.66 33.43 583.46 32.75 C 583.25 32.07 583.38 31.33 583.78 30.77 C 594.26 28 605.18 28 615.67 30.77" fill="#ffffff" stroke="#000000" stroke-miterlimit="10" transform="rotate(-180,600,49.5)" pointer-events="all" style="fill: var(--ge-adaptive-bg, #ffffff); stroke: light-dark(rgb(0, 0, 0), rgb(255, 255, 255));"/></g></g><g data-cell-id="rzHJBAYA5Kq8FJsv38pJ-28"><g transform="translate(0.5,0.5)"><rect x="560" y="0" width="80" height="50" fill="#ffffff" stroke="#000000" transform="rotate(-180,600,25)" pointer-events="all" style="fill: var(--ge-adaptive-bg, #ffffff); stroke: light-dark(rgb(0, 0, 0), rgb(255, 255, 255));"/></g></g><g data-cell-id="rzHJBAYA5Kq8FJsv38pJ-29"><g transform="translate(0.5,0.5)"><rect x="570" y="41" width="60" height="30" fill="none" stroke="none" pointer-events="all"/></g><g><g><switch><foreignObject style="overflow: visible; text-align: left;" pointer-events="none" width="100%" height="100%" requiredFeatures="http://www.w3.org/TR/SVG11/feature#Extensibility"><div xmlns="http://www.w3.org/1999/xhtml" style="display: flex; align-items: unsafe center; justify-content: unsafe center; width: 58px; height: 1px; padding-top: 56px; margin-left: 571px;"><div style="box-sizing: border-box; font-size: 0; text-align: center; color: #000000; "><div style="display: inline-block; font-size: 12px; font-family: Helvetica; color: light-dark(#000000, #ffffff); line-height: 1.2; pointer-events: all; white-space: normal; word-wrap: normal; ">S008</div></div></div></foreignObject><text x="600" y="60" fill="light-dark(#000000, #ffffff)" font-family="Helvetica" font-size="12px" text-anchor="middle">S008</text></switch></g></g></g></g><g data-cell-id="rzHJBAYA5Kq8FJsv38pJ-30"><g transform="translate(0.5,0.5)"/><g data-cell-id="rzHJBAYA5Kq8FJsv38pJ-31"><g transform="translate(0.5,0.5)"><path d="M 696.44 36.28 L 699.43 60.36 C 700 63.89 698.44 67.44 695.45 69.38 C 685.21 71 674.79 71 664.55 69.38 C 661.56 67.44 660 63.89 660.57 60.36 L 663.56 36.28 C 664.13 33.61 666.98 31.56 670.53 31.26 L 689.47 31.26 C 693.02 31.56 695.87 33.61 696.44 36.28 Z" fill="#ffffff" stroke="#000000" stroke-miterlimit="10" transform="rotate(-180,680,49.5)" pointer-events="all" style="fill: var(--ge-adaptive-bg, #ffffff); stroke: light-dark(rgb(0, 0, 0), rgb(255, 255, 255));"/><path d="M 695.67 30.77 C 696.49 31.08 696.94 32.08 696.67 33.01 C 696.39 33.94 695.5 34.44 694.67 34.13 C 684.82 31.7 674.62 31.7 664.77 34.13 C 664.15 33.95 663.66 33.43 663.46 32.75 C 663.25 32.07 663.38 31.33 663.78 30.77 C 674.26 28 685.18 28 695.67 30.77" fill="#ffffff" stroke="#000000" stroke-miterlimit="10" transform="rotate(-180,680,49.5)" pointer-events="all" style="fill: var(--ge-adaptive-bg, #ffffff); stroke: light-dark(rgb(0, 0, 0), rgb(255, 255, 255));"/></g></g><g data-cell-id="rzHJBAYA5Kq8FJsv38pJ-32"><g transform="translate(0.5,0.5)"><rect x="640" y="0" width="80" height="50" fill="#ffffff" stroke="#000000" transform="rotate(-180,680,25)" pointer-events="all" style="fill: var(--ge-adaptive-bg, #ffffff); stroke: light-dark(rgb(0, 0, 0), rgb(255, 255, 255));"/></g></g><g data-cell-id="rzHJBAYA5Kq8FJsv38pJ-33"><g transform="translate(0.5,0.5)"><rect x="650" y="41" width="60" height="30" fill="none" stroke="none" pointer-events="all"/></g><g><g><switch><foreignObject style="overflow: visible; text-align: left;" pointer-events="none" width="100%" height="100%" requiredFeatures="http://www.w3.org/TR/SVG11/feature#Extensibility"><div xmlns="http://www.w3.org/1999/xhtml" style="display: flex; align-items: unsafe center; justify-content: unsafe center; width: 58px; height: 1px; padding-top: 56px; margin-left: 651px;"><div style="box-sizing: border-box; font-size: 0; text-align: center; color: #000000; "><div style="display: inline-block; font-size: 12px; font-family: Helvetica; color: light-dark(#000000, #ffffff); line-height: 1.2; pointer-events: all; white-space: normal; word-wrap: normal; ">S009</div></div></div></foreignObject><text x="680" y="60" fill="light-dark(#000000, #ffffff)" font-family="Helvetica" font-size="12px" text-anchor="middle">S009</text></switch></g></g></g></g><g data-cell-id="rzHJBAYA5Kq8FJsv38pJ-34"><g transform="translate(0.5,0.5)"/><g data-cell-id="rzHJBAYA5Kq8FJsv38pJ-35"><g transform="translate(0.5,0.5)"><path d="M 776.44 36.28 L 779.43 60.36 C 780 63.89 778.44 67.44 775.45 69.38 C 765.21 71 754.79 71 744.55 69.38 C 741.56 67.44 740 63.89 740.57 60.36 L 743.56 36.28 C 744.13 33.61 746.98 31.56 750.53 31.26 L 769.47 31.26 C 773.02 31.56 775.87 33.61 776.44 36.28 Z" fill="#ffffff" stroke="#000000" stroke-miterlimit="10" transform="rotate(-180,760,49.5)" pointer-events="all" style="fill: var(--ge-adaptive-bg, #ffffff); stroke: light-dark(rgb(0, 0, 0), rgb(255, 255, 255));"/><path d="M 775.67 30.77 C 776.49 31.08 776.94 32.08 776.67 33.01 C 776.39 33.94 775.5 34.44 774.67 34.13 C 764.82 31.7 754.62 31.7 744.77 34.13 C 744.15 33.95 743.66 33.43 743.46 32.75 C 743.25 32.07 743.38 31.33 743.78 30.77 C 754.26 28 765.18 28 775.67 30.77" fill="#ffffff" stroke="#000000" stroke-miterlimit="10" transform="rotate(-180,760,49.5)" pointer-events="all" style="fill: var(--ge-adaptive-bg, #ffffff); stroke: light-dark(rgb(0, 0, 0), rgb(255, 255, 255));"/></g></g><g data-cell-id="rzHJBAYA5Kq8FJsv38pJ-36"><g transform="translate(0.5,0.5)"><rect x="720" y="0" width="80" height="50" fill="#ffffff" stroke="#000000" transform="rotate(-180,760,25)" pointer-events="all" style="fill: var(--ge-adaptive-bg, #ffffff); stroke: light-dark(rgb(0, 0, 0), rgb(255, 255, 255));"/></g></g><g data-cell-id="rzHJBAYA5Kq8FJsv38pJ-37"><g transform="translate(0.5,0.5)"><rect x="730" y="41" width="60" height="30" fill="none" stroke="none" pointer-events="all"/></g><g><g><switch><foreignObject style="overflow: visible; text-align: left;" pointer-events="none" width="100%" height="100%" requiredFeatures="http://www.w3.org/TR/SVG11/feature#Extensibility"><div xmlns="http://www.w3.org/1999/xhtml" style="display: flex; align-items: unsafe center; justify-content: unsafe center; width: 58px; height: 1px; padding-top: 56px; margin-left: 731px;"><div style="box-sizing: border-box; font-size: 0; text-align: center; color: #000000; "><div style="display: inline-block; font-size: 12px; font-family: Helvetica; color: light-dark(#000000, #ffffff); line-height: 1.2; pointer-events: all; white-space: normal; word-wrap: normal; ">S010</div></div></div></foreignObject><text x="760" y="60" fill="light-dark(#000000, #ffffff)" font-family="Helvetica" font-size="12px" text-anchor="middle">S010</text></switch></g></g></g></g><g data-cell-id="rzHJBAYA5Kq8FJsv38pJ-38"><g transform="translate(0.5,0.5)"/><g data-cell-id="rzHJBAYA5Kq8FJsv38pJ-39"><g transform="translate(0.5,0.5)"><path d="M 856.44 36.28 L 859.43 60.36 C 860 63.89 858.44 67.44 855.45 69.38 C 845.21 71 834.79 71 824.55 69.38 C 821.56 67.44 820 63.89 820.57 60.36 L 823.56 36.28 C 824.13 33.61 826.98 31.56 830.53 31.26 L 849.47 31.26 C 853.02 31.56 855.87 33.61 856.44 36.28 Z" fill="#ffffff" stroke="#000000" stroke-miterlimit="10" transform="rotate(-180,840,49.5)" pointer-events="all" style="fill: var(--ge-adaptive-bg, #ffffff); stroke: light-dark(rgb(0, 0, 0), rgb(255, 255, 255));"/><path d="M 855.67 30.77 C 856.49 31.08 856.94 32.08 856.67 33.01 C 856.39 33.94 855.5 34.44 854.67 34.13 C 844.82 31.7 834.62 31.7 824.77 34.13 C 824.15 33.95 823.66 33.43 823.46 32.75 C 823.25 32.07 823.38 31.33 823.78 30.77 C 834.26 28 845.18 28 855.67 30.77" fill="#ffffff" stroke="#000000" stroke-miterlimit="10" transform="rotate(-180,840,49.5)" pointer-events="all" style="fill: var(--ge-adaptive-bg, #ffffff); stroke: light-dark(rgb(0, 0, 0), rgb(255, 255, 255));"/></g></g><g data-cell-id="rzHJBAYA5Kq8FJsv38pJ-40"><g transform="translate(0.5,0.5)"><rect x="800" y="0" width="80" height="50" fill="#ffffff" stroke="#000000" transform="rotate(-180,840,25)" pointer-events="all" style="fill: var(--ge-adaptive-bg, #ffffff); stroke: light-dark(rgb(0, 0, 0), rgb(255, 255, 255));"/></g></g><g data-cell-id="rzHJBAYA5Kq8FJsv38pJ-41"><g transform="translate(0.5,0.5)"><rect x="810" y="41" width="60" height="30" fill="none" stroke="none" pointer-events="all"/></g><g><g><switch><foreignObject style="overflow: visible; text-align: left;" pointer-events="none" width="100%" height="100%" requiredFeatures="http://www.w3.org/TR/SVG11/feature#Extensibility"><div xmlns="http://www.w3.org/1999/xhtml" style="display: flex; align-items: unsafe center; justify-content: unsafe center; width: 58px; height: 1px; padding-top: 56px; margin-left: 811px;"><div style="box-sizing: border-box; font-size: 0; text-align: center; color: #000000; "><div style="display: inline-block; font-size: 12px; font-family: Helvetica; color: light-dark(#000000, #ffffff); line-height: 1.2; pointer-events: all; white-space: normal; word-wrap: normal; ">S011</div></div></div></foreignObject><text x="840" y="60" fill="light-dark(#000000, #ffffff)" font-family="Helvetica" font-size="12px" text-anchor="middle">S011</text></switch></g></g></g></g><g data-cell-id="rzHJBAYA5Kq8FJsv38pJ-42"><g transform="translate(0.5,0.5)"/><g data-cell-id="rzHJBAYA5Kq8FJsv38pJ-43"><g transform="translate(0.5,0.5)"><path d="M 936.44 36.28 L 939.43 60.36 C 940 63.89 938.44 67.44 935.45 69.38 C 925.21 71 914.79 71 904.55 69.38 C 901.56 67.44 900 63.89 900.57 60.36 L 903.56 36.28 C 904.13 33.61 906.98 31.56 910.53 31.26 L 929.47 31.26 C 933.02 31.56 935.87 33.61 936.44 36.28 Z" fill="#ffffff" stroke="#000000" stroke-miterlimit="10" transform="rotate(-180,920,49.5)" pointer-events="all" style="fill: var(--ge-adaptive-bg, #ffffff); stroke: light-dark(rgb(0, 0, 0), rgb(255, 255, 255));"/><path d="M 935.67 30.77 C 936.49 31.08 936.94 32.08 936.67 33.01 C 936.39 33.94 935.5 34.44 934.67 34.13 C 924.82 31.7 914.62 31.7 904.77 34.13 C 904.15 33.95 903.66 33.43 903.46 32.75 C 903.25 32.07 903.38 31.33 903.78 30.77 C 914.26 28 925.18 28 935.67 30.77" fill="#ffffff" stroke="#000000" stroke-miterlimit="10" transform="rotate(-180,920,49.5)" pointer-events="all" style="fill: var(--ge-adaptive-bg, #ffffff); stroke: light-dark(rgb(0, 0, 0), rgb(255, 255, 255));"/></g></g><g data-cell-id="rzHJBAYA5Kq8FJsv38pJ-44"><g transform="translate(0.5,0.5)"><rect x="880" y="0" width="80" height="50" fill="#ffffff" stroke="#000000" transform="rotate(-180,920,25)" pointer-events="all" style="fill: var(--ge-adaptive-bg, #ffffff); stroke: light-dark(rgb(0, 0, 0), rgb(255, 255, 255));"/></g></g><g data-cell-id="rzHJBAYA5Kq8FJsv38pJ-45"><g transform="translate(0.5,0.5)"><rect x="890" y="41" width="60" height="30" fill="none" stroke="none" pointer-events="all"/></g><g><g><switch><foreignObject style="overflow: visible; text-align: left;" pointer-events="none" width="100%" height="100%" requiredFeatures="http://www.w3.org/TR/SVG11/feature#Extensibility"><div xmlns="http://www.w3.org/1999/xhtml" style="display: flex; align-items: unsafe center; justify-content: unsafe center; width: 58px; height: 1px; padding-top: 56px; margin-left: 891px;"><div style="box-sizing: border-box; font-size: 0; text-align: center; color: #000000; "><div style="display: inline-block; font-size: 12px; font-family: Helvetica; color: light-dark(#000000, #ffffff); line-height: 1.2; pointer-events: all; white-space: normal; word-wrap: normal; ">S012</div></div></div></foreignObject><text x="920" y="60" fill="light-dark(#000000, #ffffff)" font-family="Helvetica" font-size="12px" text-anchor="middle">S012</text></switch></g></g></g></g><g data-cell-id="rzHJBAYA5Kq8FJsv38pJ-46"><g transform="translate(0.5,0.5)"/><g data-cell-id="rzHJBAYA5Kq8FJsv38pJ-47"><g transform="translate(0.5,0.5)"><path d="M 1016.44 36.28 L 1019.43 60.36 C 1020 63.89 1018.44 67.44 1015.45 69.38 C 1005.21 71 994.79 71 984.55 69.38 C 981.56 67.44 980 63.89 980.57 60.36 L 983.56 36.28 C 984.13 33.61 986.98 31.56 990.53 31.26 L 1009.47 31.26 C 1013.02 31.56 1015.87 33.61 1016.44 36.28 Z" fill="#ffffff" stroke="#000000" stroke-miterlimit="10" transform="rotate(-180,1000,49.5)" pointer-events="all" style="fill: var(--ge-adaptive-bg, #ffffff); stroke: light-dark(rgb(0, 0, 0), rgb(255, 255, 255));"/><path d="M 1015.67 30.77 C 1016.49 31.08 1016.94 32.08 1016.67 33.01 C 1016.39 33.94 1015.5 34.44 1014.67 34.13 C 1004.82 31.7 994.62 31.7 984.77 34.13 C 984.15 33.95 983.66 33.43 983.46 32.75 C 983.25 32.07 983.38 31.33 983.78 30.77 C 994.26 28 1005.18 28 1015.67 30.77" fill="#ffffff" stroke="#000000" stroke-miterlimit="10" transform="rotate(-180,1000,49.5)" pointer-events="all" style="fill: var(--ge-adaptive-bg, #ffffff); stroke: light-dark(rgb(0, 0, 0), rgb(255, 255, 255));"/></g></g><g data-cell-id="rzHJBAYA5Kq8FJsv38pJ-48"><g transform="translate(0.5,0.5)"><rect x="960" y="0" width="80" height="50" fill="#ffffff" stroke="#000000" transform="rotate(-180,1000,25)" pointer-events="all" style="fill: var(--ge-adaptive-bg, #ffffff); stroke: light-dark(rgb(0, 0, 0), rgb(255, 255, 255));"/></g></g><g data-cell-id="rzHJBAYA5Kq8FJsv38pJ-49"><g transform="translate(0.5,0.5)"><rect x="970" y="41" width="60" height="30" fill="none" stroke="none" pointer-events="all"/></g><g><g><switch><foreignObject style="overflow: visible; text-align: left;" pointer-events="none" width="100%" height="100%" requiredFeatures="http://www.w3.org/TR/SVG11/feature#Extensibility"><div xmlns="http://www.w3.org/1999/xhtml" style="display: flex; align-items: unsafe center; justify-content: unsafe center; width: 58px; height: 1px; padding-top: 56px; margin-left: 971px;"><div style="box-sizing: border-box; font-size: 0; text-align: center; color: #000000; "><div style="display: inline-block; font-size: 12px; font-family: Helvetica; color: light-dark(#000000, #ffffff); line-height: 1.2; pointer-events: all; white-space: normal; word-wrap: normal; ">S013</div></div></div></foreignObject><text x="1000" y="60" fill="light-dark(#000000, #ffffff)" font-family="Helvetica" font-size="12px" text-anchor="middle">S013</text></switch></g></g></g></g><g data-cell-id="rzHJBAYA5Kq8FJsv38pJ-50"><g transform="translate(0.5,0.5)"/><g data-cell-id="rzHJBAYA5Kq8FJsv38pJ-51"><g transform="translate(0.5,0.5)"><path d="M 1096.44 36.28 L 1099.43 60.36 C 1100 63.89 1098.44 67.44 1095.45 69.38 C 1085.21 71 1074.79 71 1064.55 69.38 C 1061.56 67.44 1060 63.89 1060.57 60.36 L 1063.56 36.28 C 1064.13 33.61 1066.98 31.56 1070.53 31.26 L 1089.47 31.26 C 1093.02 31.56 1095.87 33.61 1096.44 36.28 Z" fill="#ffffff" stroke="#000000" stroke-miterlimit="10" transform="rotate(-180,1080,49.5)" pointer-events="all" style="fill: var(--ge-adaptive-bg, #ffffff); stroke: light-dark(rgb(0, 0, 0), rgb(255, 255, 255));"/><path d="M 1095.67 30.77 C 1096.49 31.08 1096.94 32.08 1096.67 33.01 C 1096.39 33.94 1095.5 34.44 1094.67 34.13 C 1084.82 31.7 1074.62 31.7 1064.77 34.13 C 1064.15 33.95 1063.66 33.43 1063.46 32.75 C 1063.25 32.07 1063.38 31.33 1063.78 30.77 C 1074.26 28 1085.18 28 1095.67 30.77" fill="#ffffff" stroke="#000000" stroke-miterlimit="10" transform="rotate(-180,1080,49.5)" pointer-events="all" style="fill: var(--ge-adaptive-bg, #ffffff); stroke: light-dark(rgb(0, 0, 0), rgb(255, 255, 255));"/></g></g><g data-cell-id="rzHJBAYA5Kq8FJsv38pJ-52"><g transform="translate(0.5,0.5)"><rect x="1040" y="0" width="80" height="50" fill="#ffffff" stroke="#000000" transform="rotate(-180,1080,25)" pointer-events="all" style="fill: var(--ge-adaptive-bg, #ffffff); stroke: light-dark(rgb(0, 0, 0), rgb(255, 255, 255));"/></g></g><g data-cell-id="rzHJBAYA5Kq8FJsv38pJ-53"><g transform="translate(0.5,0.5)"><rect x="1050" y="41" width="60" height="30" fill="none" stroke="none" pointer-events="all"/></g><g><g><switch><foreignObject style="overflow: visible; text-align: left;" pointer-events="none" width="100%" height="100%" requiredFeatures="http://www.w3.org/TR/SVG11/feature#Extensibility"><div xmlns="http://www.w3.org/1999/xhtml" style="display: flex; align-items: unsafe center; justify-content: unsafe center; width: 58px; height: 1px; padding-top: 56px; margin-left: 1051px;"><div style="box-sizing: border-box; font-size: 0; text-align: center; color: #000000; "><div style="display: inline-block; font-size: 12px; font-family: Helvetica; color: light-dark(#000000, #ffffff); line-height: 1.2; pointer-events: all; white-space: normal; word-wrap: normal; ">S014</div></div></div></foreignObject><text x="1080" y="60" fill="light-dark(#000000, #ffffff)" font-family="Helvetica" font-size="12px" text-anchor="middle">S014</text></switch></g></g></g></g><g data-cell-id="rzHJBAYA5Kq8FJsv38pJ-54"><g transform="translate(0.5,0.5)"/><g data-cell-id="rzHJBAYA5Kq8FJsv38pJ-55"><g transform="translate(0.5,0.5)"><path d="M 1176.44 36.28 L 1179.43 60.36 C 1180 63.89 1178.44 67.44 1175.45 69.38 C 1165.21 71 1154.79 71 1144.55 69.38 C 1141.56 67.44 1140 63.89 1140.57 60.36 L 1143.56 36.28 C 1144.13 33.61 1146.98 31.56 1150.53 31.26 L 1169.47 31.26 C 1173.02 31.56 1175.87 33.61 1176.44 36.28 Z" fill="#ffffff" stroke="#000000" stroke-miterlimit="10" transform="rotate(-180,1160,49.5)" pointer-events="all" style="fill: var(--ge-adaptive-bg, #ffffff); stroke: light-dark(rgb(0, 0, 0), rgb(255, 255, 255));"/><path d="M 1175.67 30.77 C 1176.49 31.08 1176.94 32.08 1176.67 33.01 C 1176.39 33.94 1175.5 34.44 1174.67 34.13 C 1164.82 31.7 1154.62 31.7 1144.77 34.13 C 1144.15 33.95 1143.66 33.43 1143.46 32.75 C 1143.25 32.07 1143.38 31.33 1143.78 30.77 C 1154.26 28 1165.18 28 1175.67 30.77" fill="#ffffff" stroke="#000000" stroke-miterlimit="10" transform="rotate(-180,1160,49.5)" pointer-events="all" style="fill: var(--ge-adaptive-bg, #ffffff); stroke: light-dark(rgb(0, 0, 0), rgb(255, 255, 255));"/></g></g><g data-cell-id="rzHJBAYA5Kq8FJsv38pJ-56"><g transform="translate(0.5,0.5)"><rect x="1120" y="0" width="80" height="50" fill="#ffffff" stroke="#000000" transform="rotate(-180,1160,25)" pointer-events="all" style="fill: var(--ge-adaptive-bg, #ffffff); stroke: light-dark(rgb(0, 0, 0), rgb(255, 255, 255));"/></g></g><g data-cell-id="rzHJBAYA5Kq8FJsv38pJ-57"><g transform="translate(0.5,0.5)"><rect x="1130" y="41" width="60" height="30" fill="none" stroke="none" pointer-events="all"/></g><g><g><switch><foreignObject style="overflow: visible; text-align: left;" pointer-events="none" width="100%" height="100%" requiredFeatures="http://www.w3.org/TR/SVG11/feature#Extensibility"><div xmlns="http://www.w3.org/1999/xhtml" style="display: flex; align-items: unsafe center; justify-content: unsafe center; width: 58px; height: 1px; padding-top: 56px; margin-left: 1131px;"><div style="box-sizing: border-box; font-size: 0; text-align: center; color: #000000; "><div style="display: inline-block; font-size: 12px; font-family: Helvetica; color: light-dark(#000000, #ffffff); line-height: 1.2; pointer-events: all; white-space: normal; word-wrap: normal; ">S015</div></div></div></foreignObject><text x="1160" y="60" fill="light-dark(#000000, #ffffff)" font-family="Helvetica" font-size="12px" text-anchor="middle">S015</text></switch></g></g></g></g><g data-cell-id="rzHJBAYA5Kq8FJsv38pJ-58"><g transform="translate(0.5,0.5)"/><g data-cell-id="rzHJBAYA5Kq8FJsv38pJ-59"><g transform="translate(0.5,0.5)"><path d="M 56.44 36.28 L 59.43 60.36 C 60 63.89 58.44 67.44 55.45 69.38 C 45.21 71 34.79 71 24.55 69.38 C 21.56 67.44 20 63.89 20.57 60.36 L 23.56 36.28 C 24.13 33.61 26.98 31.56 30.53 31.26 L 49.47 31.26 C 53.02 31.56 55.87 33.61 56.44 36.28 Z" fill="#ffffff" stroke="#000000" stroke-miterlimit="10" transform="rotate(-180,40,49.5)" pointer-events="all" style="fill: var(--ge-adaptive-bg, #ffffff); stroke: light-dark(rgb(0, 0, 0), rgb(255, 255, 255));"/><path d="M 55.67 30.77 C 56.49 31.08 56.94 32.08 56.67 33.01 C 56.39 33.94 55.5 34.44 54.67 34.13 C 44.82 31.7 34.62 31.7 24.77 34.13 C 24.15 33.95 23.66 33.43 23.46 32.75 C 23.25 32.07 23.38 31.33 23.78 30.77 C 34.26 28 45.18 28 55.67 30.77" fill="#ffffff" stroke="#000000" stroke-miterlimit="10" transform="rotate(-180,40,49.5)" pointer-events="all" style="fill: var(--ge-adaptive-bg, #ffffff); stroke: light-dark(rgb(0, 0, 0), rgb(255, 255, 255));"/></g></g><g data-cell-id="rzHJBAYA5Kq8FJsv38pJ-60"><g transform="translate(0.5,0.5)"><rect x="0" y="0" width="80" height="50" fill="#ffffff" stroke="#000000" transform="rotate(-180,40,25)" pointer-events="all" style="fill: var(--ge-adaptive-bg, #ffffff); stroke: light-dark(rgb(0, 0, 0), rgb(255, 255, 255));"/></g></g><g data-cell-id="rzHJBAYA5Kq8FJsv38pJ-61"><g transform="translate(0.5,0.5)"><rect x="10" y="41" width="60" height="30" fill="none" stroke="none" pointer-events="all"/></g><g><g><switch><foreignObject style="overflow: visible; text-align: left;" pointer-events="none" width="100%" height="100%" requiredFeatures="http://www.w3.org/TR/SVG11/feature#Extensibility"><div xmlns="http://www.w3.org/1999/xhtml" style="display: flex; align-items: unsafe center; justify-content: unsafe center; width: 58px; height: 1px; padding-top: 56px; margin-left: 11px;"><div style="box-sizing: border-box; font-size: 0; text-align: center; color: #000000; "><div style="display: inline-block; font-size: 12px; font-family: Helvetica; color: light-dark(#000000, #ffffff); line-height: 1.2; pointer-events: all; white-space: normal; word-wrap: normal; ">S001</div></div></div></foreignObject><text x="40" y="60" fill="light-dark(#000000, #ffffff)" font-family="Helvetica" font-size="12px" text-anchor="middle">S001</text></switch></g></g></g></g></g></g></g></svg>